HIERARCHY
ROOT Hips
{
 OFFSET 0.000000 0.000000 0.000000
 CHANNELS 6 Xposition Yposition Zposition Yrotation Xrotation Zrotation
 JOINT Chest
 {
  OFFSET 0.000000 9.581000 -0.001100
  CHANNELS 3 Yrotation Xrotation Zrotation
  JOINT Chest2
  {
   OFFSET 0.000000 9.561100 0.002200
   CHANNELS 3 Yrotation Xrotation Zrotation
   JOINT Chest3
   {
    OFFSET 0.000000 9.521100 0.000000
    CHANNELS 3 Yrotation Xrotation Zrotation
    JOINT Chest4
    {
     OFFSET 0.000000 9.511400 0.000000
     CHANNELS 3 Yrotation Xrotation Zrotation
     JOINT Neck
     {
      OFFSET 0.000000 14.375100 0.000000
      CHANNELS 3 Yrotation Xrotation Zrotation
      JOINT Head
      {
       OFFSET 0.000000 8.901200 0.004600
       CHANNELS 3 Yrotation Xrotation Zrotation
       End Site
       {
        OFFSET 0.000000 16.962200 0.002400
       }
      }
     }
     JOINT RightCollar
     {
      OFFSET -2.920100 9.518800 0.000000
      CHANNELS 3 Yrotation Xrotation Zrotation
      JOINT RightShoulder
      {
       OFFSET -13.664500 0.000000 0.000000
       CHANNELS 3 Yrotation Xrotation Zrotation
       JOINT RightElbow
       {
        OFFSET 0.000000 -29.999200 0.000000
        CHANNELS 3 Yrotation Xrotation Zrotation
        JOINT RightWrist
        {
         OFFSET 0.000000 -24.253600 0.000000
         CHANNELS 3 Yrotation Xrotation Zrotation
         End Site
         {
          OFFSET 0.000000 -17.918900 0.000000
         }
        }
       }
      }
     }
     JOINT LeftCollar
     {
      OFFSET 2.920100 9.518800 0.000000
      CHANNELS 3 Yrotation Xrotation Zrotation
      JOINT LeftShoulder
      {
       OFFSET 13.664500 0.000000 0.000000
       CHANNELS 3 Yrotation Xrotation Zrotation
       JOINT LeftElbow
       {
        OFFSET 0.000000 -29.999200 0.000000
        CHANNELS 3 Yrotation Xrotation Zrotation
        JOINT LeftWrist
        {
         OFFSET 0.000000 -24.253600 0.000000
         CHANNELS 3 Yrotation Xrotation Zrotation
         End Site
         {
          OFFSET 0.000000 -17.918900 0.000000
         }
        }
       }
      }
     }
    }
   }
  }
 }
 JOINT RightHip
 {
  OFFSET -7.797300 0.005300 0.000500
  CHANNELS 3 Yrotation Xrotation Zrotation
  JOINT RightKnee
  {
   OFFSET 0.000000 -40.663400 -0.000500
   CHANNELS 3 Yrotation Xrotation Zrotation
   JOINT RightAnkle
   {
    OFFSET 0.000000 -39.523700 -0.000900
    CHANNELS 3 Yrotation Xrotation Zrotation
    JOINT RightToe
    {
     OFFSET 0.000000 -6.418000 14.485300
     CHANNELS 3 Yrotation Xrotation Zrotation
     End Site
     {
      OFFSET 0.000000 -1.465200 6.326400
     }
    }
   }
  }
 }
 JOINT LeftHip
 {
  OFFSET 7.797300 0.005300 0.000500
  CHANNELS 3 Yrotation Xrotation Zrotation
  JOINT LeftKnee
  {
   OFFSET 0.000000 -40.663400 -0.000500
   CHANNELS 3 Yrotation Xrotation Zrotation
   JOINT LeftAnkle
   {
    OFFSET 0.000000 -39.523700 -0.000900
    CHANNELS 3 Yrotation Xrotation Zrotation
    JOINT LeftToe
    {
     OFFSET 0.000000 -6.418000 14.485300
     CHANNELS 3 Yrotation Xrotation Zrotation
     End Site
     {
      OFFSET 0.000000 -1.465200 6.326400
     }
    }
   }
  }
 }
}
MOTION
Frames: 5
Frame Time: 0.008333
0.000000 86.422400 0.000000 0.000000 -5.767877 0.000000 0.000000 11.653817 0.000000 0.000000 -5.885947 0.000000 0.000000 -0.000000 0.000000 0.000000 -0.000000 0.000000 0.000000 12.528835 0.000000 0.000000 0.711642 0.000000 0.000000 -0.000000 0.000000 0.000000 0.000000 -90.000000 0.000000 -2.309062 0.000000 0.000000 2.309062 0.000000 0.000000 -0.000000 0.000000 0.000000 -0.000000 90.000000 0.000000 -2.309062 0.000000 0.000000 2.309062 0.000000 0.000000 8.520406 0.000000 0.000000 1.905762 0.000000 -0.000000 -4.658285 0.000000 0.000000 -0.000000 0.000000 0.000000 8.520406 0.000000 0.000000 1.905762 0.000000 -0.000000 -4.658285 0.000000 0.000000 -0.000000 0.000000
-12.792006 126.872779 -5.009211 -171.525356 -44.462636 -4.408308 0.076233 25.930494 2.015447 -0.051943 4.273855 0.321585 -0.084188 6.806188 0.512073 -0.003860 21.346109 1.628737 7.591467 10.697510 -1.662665 8.826091 -14.340605 -3.676469 3.090910 -1.961376 2.568467 -0.840940 -27.338785 -9.625872 -82.765020 -39.154166 135.415916 -23.579135 -23.438918 -11.415550 -9.719133 -2.163862 0.583340 -7.321360 -10.461438 8.941173 57.713164 -49.888687 -104.085760 2.181500 -9.251502 4.903390 -10.987065 -13.712950 -9.791160 -167.333918 75.277650 -171.409293 22.890142 21.758900 -6.613730 -0.002665 -0.017373 -0.001181 12.101304 -16.976585 -8.575187 6.856197 70.498695 -5.834049 3.301077 -12.001820 12.935439 -0.002748 0.000571 -0.001218
-12.794196 126.872079 -5.010151 -171.496932 -44.442725 -4.404362 0.093683 25.922036 2.012674 -0.048639 4.270248 0.321085 -0.119182 6.797714 0.513023 0.050434 21.342726 1.622762 7.551975 11.019447 -1.598569 8.745143 -13.996208 -3.585106 3.165764 -2.016238 2.596456 -0.951535 -27.621640 -9.412960 -82.746594 -38.746947 135.253979 -23.862743 -24.300936 -12.398058 -9.737896 -2.146766 0.588088 -7.373407 -10.513789 8.936648 57.657363 -49.888237 -104.035288 2.156470 -9.193974 4.760807 -10.996454 -13.727006 -9.795281 -167.330045 75.271970 -171.407575 22.872333 21.794121 -6.674096 -0.005008 -0.010673 -0.002219 12.090995 -16.988868 -8.593835 6.865960 70.499289 -5.835613 3.285527 -11.992069 12.942528 -0.001705 0.000155 -0.000755
-12.796795 126.871146 -5.011100 -171.470618 -44.419193 -4.395595 0.112376 25.912391 2.008544 -0.045154 4.266898 0.320925 -0.118593 6.789923 0.511077 0.038085 21.338525 1.628626 7.539909 11.361997 -1.553268 8.662494 -13.634150 -3.498055 3.262080 -2.058376 2.608634 -1.085702 -27.870458 -9.194266 -82.639245 -38.332628 135.021385 -24.096369 -25.018805 -13.272435 -9.724766 -2.134333 0.580398 -7.419497 -10.564425 8.932218 57.616659 -49.874375 -104.059631 2.113436 -9.114017 4.677576 -11.005172 -13.738990 -9.797134 -167.369750 75.262927 -171.466624 22.850083 21.781389 -6.684967 -0.009271 -0.003077 -0.004107 12.084075 -17.005560 -8.620906 6.849735 70.499713 -5.854841 3.282781 -11.979130 12.944818 0.000013 -0.000427 0.000006
-12.797698 126.870480 -5.012566 -171.442310 -44.395754 -4.398630 0.108724 25.897365 2.003408 -0.020452 4.271904 0.324081 -0.107436 6.783148 0.508522 0.018962 21.331869 1.634053 7.523222 11.721664 -1.507726 8.581768 -13.256565 -3.418185 3.343605 -2.084667 2.622941 -1.233728 -28.088746 -8.969270 -82.425490 -37.896648 134.720320 -24.273013 -25.621697 -14.031091 -9.714426 -2.120034 0.576926 -7.457908 -10.617898 8.927796 57.544806 -49.868457 -104.004156 2.085416 -9.035917 4.533417 -11.010476 -13.744900 -9.794917 -167.342868 75.266228 -171.433056 22.834935 21.796810 -6.719889 -0.008182 -0.004829 -0.003625 12.068772 -17.025069 -8.640352 6.846869 70.501594 -5.859430 3.282046 -11.972297 12.944437 0.000149 -0.000866 0.000066
